<svg version="1" xmlns="http://www.w3.org/2000/svg" width="346.667" height="346.667" viewBox="0 0 260.000000 260.000000"><path d="M124.6 11.7c-.5 1.2-1 1.3-1.8.5s-1.7-.8-3.1-.1c-1.1.6-1.7.7-1.4.2.4-.5 0-1-.8-1s-1.2.4-.9.9c.4.7-4.3 1.3-6.8.9-.5 0-.8.3-.8.8s-.8.8-1.7.6c-1-.1-2.2 0-2.8.4-.5.3-1.9.7-3 .8-1 .2-2.3.9-2.7 1.6-.4.6-.8.9-.8.4 0-.4-1.8.2-4 1.3-2.1 1.1-4.6 2-5.5 2-.9 0-1.4.4-1 .9.3.5-.3 1.2-1.2 1.5-1 .3-3 1.7-4.4 3-1.5 1.4-3 2.2-3.3 1.9-.3-.4-.6.1-.6 1 0 1-.5 1.7-1 1.7-.6 0-1.4.8-1.7 1.7-.7 1.9-5.3 6.7-5.3 5.5 0-.4-1.1 1-2.5 3S65 45.4 65 45.9c0 .6-.4 1.1-.9 1.1s-1.2 1.8-1.6 4c-.4 2.2-1.1 4-1.7 4-.5 0-.8 1.5-.7 3.2.3 2.4 0 3.2-1.1 3-1.1-.3-1.1 0 .1 1.4 1.1 1.3 1.1 1.8.2 2.1-.9.3-1 1-.3 2.4.7 1.3.7 1.9 0 1.9-.5 0-1 .5-1 1.1 0 .5.5.7 1.2.3.6-.4.8-.3.5.3-1.2 1.9-1.6 6.3-.5 6.3.6 0 .6.6-.2 1.5-1 1.2-1 1.5.1 1.5s1.1.2-.1 1c-.9.6-1.1 1.3-.5 1.7.6.5 1.1 3 1.1 5.8.2 6.7.7 10.5 1.4 10.5.3 0 .6 1.1.6 2.4 0 1.4-.5 2.4-1 2.3-.6-.1-1 .4-.8 1.1.1.8-.2 1.1-.8.7-1.2-.8-3 3.4-2.2 5.4.4 1 .1 1.2-.9.6-1.2-.7-1.2-.6-.1.7.7.9 1.4 3.2 1.5 5.2.1 2 .4 3.6.7 3.6.3 0 .7 1.6.8 3.5.3 5.6.5 6.5 1.4 6.5.5 0 .6.5.3 1-.4.6-.1 1.8.7 2.7.7.9.8 1.4.2 1-.7-.4-.5.8.4 2.8 1.5 3.3 6.2 6.1 7.7 4.7.4-.4.6.2.4 1.2-.3 1.6-1.3 2-5.2 2.1-2.6 0-4.7-.3-4.7-.7 0-.4-1.1-.3-2.5.2-1.5.6-2.6.6-3 0-.4-.6-1.3-.7-2.3-.1-.9.4-3.2.7-5 .6-2.5-.2-3.9.3-5.6 2.2-2.2 2.4-2.4 3.4-2.4 13.7 0 6.9.4 11.6 1.1 12.5.9 1.2.9 1.3 0 .7-.7-.4-1.3-.2-1.3.3 0 .6.6 1.1 1.3 1.1.8 0 .7.4-.3 1-1.3.9-1.3 1 0 1s1.3.1 0 1c-1.2.8-1.2 1-.1 1 1.1 0 1.1.3 0 1.7-.8.9-.9 1.4-.3 1 .8-.4 1.2.4 1.2 2.6 0 1.7.2 8.3.5 14.5.4 9.7.3 11.6-1.1 13.1-1 1-2.1 1.6-2.5 1.3-.5-.2-1.1.5-1.4 1.7-.3 1.2-1 2.1-1.5 2.1s-.7.4-.4.9c.3.5-.1 1.2-1 1.5-.8.3-1.3 1-1 1.5.3.4-.3 1.6-1.4 2.6-1.1 1-2 2.6-2 3.5 0 1-.7 2.3-1.5 3-.8.7-1.5 1.8-1.5 2.4 0 .6.5.4 1-.4s1-1 1-.4-.6 1.7-1.4 2.3c-.8.7-1.3 2.1-1.1 3.2.2 1.1 0 1.7-.6 1.4-.5-.4-.9 0-1 .7 0 .7-.3 2.4-.6 3.8-.2 1.4-.5 2.9-.7 3.5-.1.5-.4 1.4-.7 2-.3.5-.6 2.3-.7 3.9-.1 1.6-.7 3.5-1.3 4.2-.8 1 20.1 1.3 111.5 1.3 67.9 0 112.8-.4 113.1-.9.3-.5.1-1.8-.4-2.9-.8-1.4-.8-2.1.2-2.4.9-.4.9-.6 0-.6-.7-.1-1.3-.7-1.3-1.5s-.5-2.7-1.2-4.3c-.6-1.5-1-3.6-.9-4.6.1-.9-.3-1.7-.8-1.7-.6 0-1.1-1.1-1.1-2.4 0-1.4-.4-2.8-1-3.1-.5-.3-1-1.5-1-2.5s-.6-2.5-1.2-3.2c-2.4-2.4-5.8-9.5-5-10.3.4-.5.2-.5-.4-.2-1.1.7-2.9-1.9-2.5-3.6.1-.5-.3-.6-.9-.2-.5.3-1 .1-1-.5s-.4-.9-.9-.6c-1 .7-.6-9.8.5-11.5.4-.7.3-.9-.3-.6-.5.3-1 0-1-.8s.4-1.2.8-.9c1 .6.6-4.7-.5-6.5-.6-1-.5-1.2.2-.7 1.2.7 1.6-2.6 1.5-12.4 0-1.9.5-3.8 1.1-4.2.7-.5.7-.8-.3-.8-.9 0-1-.4-.5-1.3.5-.6.9-2.8.9-4.7 0-1.9.4-3.8 1-4.2.6-.5.6-.8-.2-.8-1.1 0-1-3.3.2-6.7.2-.6.1-1.4-.3-1.7-.3-.4-.7-1.4-.8-2.3-.7-4.4-1.6-6.3-3-6.3-.8 0-1.3-.4-1-.8.3-.5-2.7-.9-6.7-.9-4-.1-8.3-.2-9.7-.2-1.4-.1-4.6 0-7.2.2-5 .3-5.8-.2-3.3-2.3 1.2-1 1.5-1 1.5.1 0 .8.8.4 2-.9 1.2-1.2 2.5-2.2 3.1-2.2.6 0 .7-.4.4-1-.3-.5 0-2 .6-3.2 1.3-2.4 2.2-6.7 2.1-10.5 0-1.3.4-2.1.8-1.8.4.3.8-.5.8-1.8 0-1.2.3-3.3.7-4.7 1.4-5.1 1.3-10.9-.2-11.4-.8-.3-1.1-1.1-.7-1.7.4-.7.3-.9-.4-.6-.5.4-1.8.4-2.7.1-1.3-.5-1.4-.8-.3-1.5 1-.7 1-.9-.2-.9-1 0-1.1-.3-.3-.8 1.2-.7 2.7-8 2.4-12 0-1.3.3-2.1.7-1.8.4.2.8-.4.8-1.4 0-1-.4-1.6-.8-1.4-.4.3-.8 0-.8-.5 0-.6.5-1.1 1.1-1.1.5 0 .7-.5.3-1.1-.9-1.6-1.1-9.8-.2-9.3.5.3.8 0 .8-.5 0-.6-.6-1.1-1.2-1.1-.9 0-.8-.4.2-1 1.1-.7 1.1-1 .2-1-1 0-1-.5-.1-2.1.8-1.6.8-2-.1-1.4-.7.4-1 .2-.9-.6.5-3.1-1.3-10.9-2.5-10.2-.6.4-.4-.2.4-1.2s1-1.6.4-1.3c-.6.4-1.5-1.2-2.3-3.8-.7-2.4-1.7-4.4-2.2-4.4-.5 0-.8-.3-.7-.8.3-1.1-2.3-5.5-4.4-7.3-1-.9-1.8-2-1.8-2.5-.1-.5-1.5-2-3.2-3.4-1.7-1.4-3.9-3.3-4.9-4.2-.9-.9-2-1.4-2.3-1-.3.3-.6 0-.6-.6 0-.7-.6-1.2-1.4-1.2-.8 0-1.6-.4-1.8-.9-.1-.5-1.2-1.1-2.3-1.3-1.1-.1-2.6-.9-3.3-1.6-.7-.6-2.3-1.2-3.5-1.2-1.2-.1-3.3-.7-4.7-1.5-1.4-.8-3.5-1.4-4.8-1.5-1.6 0-2.1-.4-1.6-1.3.6-.9.4-.9-.8.1-.9.7-1.9.9-2.1.5-.3-.5-2.3-1-4.3-1.1-2.1-.2-4.3-.7-5-1.3-.8-.7-1.4-.6-1.9.1-.5.8-1.1.8-2 0-.8-.7-4.3-1-8.3-.9-3.8.1-7.4-.1-7.9-.4-.6-.4-1.4.1-1.7 1z"/></svg>